<svg xmlns="http://www.w3.org/2000/svg" xmlns:xlink="http://www.w3.org/1999/xlink" width="500" zoomAndPan="magnify" viewBox="0 0 375 374.999991" height="500" preserveAspectRatio="xMidYMid meet" version="1.0"><defs><clipPath id="a3008fc909"><path d="M 57.128906 43 L 218 43 L 218 296 L 57.128906 296 Z M 57.128906 43 " clip-rule="nonzero"/></clipPath></defs><rect x="-37.5" width="450" fill="#ffffff" y="-37.499999" height="449.999989" fill-opacity="1"/><rect x="-37.5" width="450" fill="#ffffff" y="-37.499999" height="449.999989" fill-opacity="1"/><g clip-path="url(#a3008fc909)"><path fill="#e45f2b" d="M 217.519531 65.210938 L 217.519531 158.847656 C 217.519531 164.570312 212.851562 169.238281 207.128906 169.238281 L 167.746094 169.238281 C 162.019531 169.238281 157.355469 164.570312 157.355469 158.847656 L 157.355469 113.925781 L 113.304688 113.925781 L 113.304688 295.105469 L 77.902344 274.695312 C 77.15625 274.261719 76.472656 273.824219 75.789062 273.390625 C 75.789062 273.390625 75.726562 273.390625 75.726562 273.328125 C 75.351562 273.078125 74.980469 272.832031 74.605469 272.582031 C 74.230469 272.332031 73.859375 272.082031 73.546875 271.773438 C 73.175781 271.523438 72.863281 271.210938 72.488281 270.964844 C 72.117188 270.714844 71.804688 270.402344 71.496094 270.09375 C 71.183594 269.78125 70.808594 269.53125 70.5 269.222656 C 70.1875 268.910156 69.9375 268.660156 69.628906 268.351562 L 69.503906 268.226562 C 69.191406 267.914062 68.882812 267.605469 68.632812 267.292969 C 68.320312 266.980469 68.011719 266.671875 67.761719 266.359375 C 67.449219 266.046875 67.203125 265.738281 66.890625 265.363281 C 66.640625 265.113281 66.453125 264.867188 66.207031 264.554688 C 66.082031 264.429688 65.957031 264.242188 65.894531 264.121094 C 65.707031 263.933594 65.582031 263.683594 65.398438 263.496094 C 65.335938 263.433594 65.273438 263.3125 65.210938 263.25 C 65.023438 262.9375 64.773438 262.6875 64.589844 262.378906 C 64.527344 262.316406 64.464844 262.191406 64.402344 262.128906 C 64.214844 261.816406 64.027344 261.570312 63.84375 261.257812 C 63.84375 261.195312 63.78125 261.195312 63.78125 261.132812 C 63.59375 260.820312 63.34375 260.449219 63.15625 260.136719 C 63.15625 260.136719 63.09375 260.074219 63.09375 260.011719 C 62.910156 259.640625 62.660156 259.328125 62.472656 258.957031 C 62.472656 258.957031 62.472656 258.957031 62.472656 258.894531 C 62.285156 258.519531 62.039062 258.148438 61.851562 257.773438 C 61.664062 257.460938 61.539062 257.089844 61.351562 256.777344 C 61.289062 256.652344 61.230469 256.527344 61.167969 256.40625 C 61.042969 256.09375 60.855469 255.78125 60.730469 255.410156 C 60.542969 255.035156 60.417969 254.664062 60.234375 254.289062 C 60.234375 254.226562 60.171875 254.164062 60.171875 254.101562 C 60.046875 253.730469 59.859375 253.355469 59.734375 252.984375 C 59.609375 252.609375 59.488281 252.234375 59.363281 251.863281 C 59.300781 251.738281 59.300781 251.613281 59.238281 251.488281 C 59.113281 251.179688 59.050781 250.804688 58.925781 250.492188 C 58.925781 250.492188 58.925781 250.433594 58.925781 250.433594 C 58.800781 250.058594 58.738281 249.683594 58.617188 249.25 C 58.617188 249.1875 58.554688 249.125 58.554688 249.0625 C 58.492188 248.691406 58.367188 248.378906 58.304688 248.003906 C 58.304688 247.941406 58.242188 247.878906 58.242188 247.757812 C 58.179688 247.445312 58.117188 247.070312 58.054688 246.761719 C 57.992188 246.324219 57.867188 245.953125 57.808594 245.515625 C 57.746094 245.082031 57.683594 244.644531 57.621094 244.273438 C 57.558594 243.835938 57.496094 243.402344 57.496094 242.964844 C 57.371094 241.597656 57.308594 240.226562 57.308594 238.796875 L 57.308594 136.199219 C 57.308594 125.125 61.726562 114.609375 69.378906 106.957031 C 70.3125 106.023438 71.308594 105.089844 72.367188 104.21875 C 73.050781 103.660156 73.796875 103.101562 74.542969 102.539062 C 75.664062 101.730469 76.78125 100.984375 78.027344 100.300781 L 166.75 49.035156 C 179.566406 41.628906 195.371094 41.628906 208.1875 49.035156 C 208.25 49.09375 208.3125 49.15625 208.4375 49.15625 C 209.992188 50.089844 211.359375 51.210938 212.542969 52.457031 C 213.476562 53.511719 214.347656 54.632812 215.03125 55.816406 C 216.648438 58.675781 217.519531 61.914062 217.519531 65.210938 Z M 217.519531 65.210938 " fill-opacity="1" fill-rule="nonzero"/></g><path fill="#000000" d="M 317.691406 136.199219 L 317.691406 238.796875 C 317.691406 253.605469 309.789062 267.292969 296.972656 274.695312 L 208.1875 325.964844 C 195.371094 333.367188 179.566406 333.367188 166.75 325.964844 C 160.964844 322.605469 157.417969 316.445312 157.417969 309.789062 L 157.417969 214.160156 C 157.417969 208.433594 162.082031 203.769531 167.808594 203.769531 L 207.128906 203.769531 C 212.851562 203.769531 217.519531 208.433594 217.519531 214.160156 L 217.519531 261.195312 L 261.632812 261.195312 L 261.632812 79.894531 L 297.035156 100.300781 C 309.789062 107.703125 317.691406 121.390625 317.691406 136.199219 Z M 317.691406 136.199219 " fill-opacity="1" fill-rule="nonzero"/></svg>